<?xml version="1.0" encoding="UTF-8" standalone="no"?>
<!-- Generator: Adobe Illustrator 17.1.0, SVG Export Plug-In . SVG Version: 6.00 Build 0)  -->

<svg
   xmlns:dc="http://purl.org/dc/elements/1.1/"
   xmlns:cc="http://creativecommons.org/ns#"
   xmlns:rdf="http://www.w3.org/1999/02/22-rdf-syntax-ns#"
   xmlns:svg="http://www.w3.org/2000/svg"
   xmlns="http://www.w3.org/2000/svg"
   xmlns:sodipodi="http://sodipodi.sourceforge.net/DTD/sodipodi-0.dtd"
   xmlns:inkscape="http://www.inkscape.org/namespaces/inkscape"
   version="1.1"
   id="Capa_1"
   x="0px"
   y="0px"
   viewBox="0 0 212.093 212.093"
   style="enable-background:new 0 0 212.093 212.093;;opacity:1"
   xml:space="preserve"
   sodipodi:docname="hero-medal.svg"
   inkscape:version="0.92.2pre0 (973e216, 2017-07-25)"><sodipodi:namedview
     pagecolor="#ffffff"
     bordercolor="#666666"
     borderopacity="1"
     objecttolerance="10"
     gridtolerance="10"
     guidetolerance="10"
     inkscape:pageopacity="0"
     inkscape:pageshadow="2"
     inkscape:window-width="1920"
     inkscape:window-height="1080"
     id="namedview35"
     showgrid="false"
     inkscape:zoom="4.2434215"
     inkscape:cx="106.0465"
     inkscape:cy="106.0465"
     inkscape:window-x="0"
     inkscape:window-y="0"
     inkscape:window-maximized="0"
     inkscape:current-layer="Capa_1" /><metadata
     id="metadata39"><rdf:RDF><cc:Work
         rdf:about=""><dc:format>image/svg+xml</dc:format><dc:type
           rdf:resource="http://purl.org/dc/dcmitype/StillImage" /><dc:title></dc:title></cc:Work></rdf:RDF></metadata><defs
     id="defs37" /><g
     id="g4" /><g
     id="g6" /><g
     id="g8" /><g
     id="g10" /><g
     id="g12" /><g
     id="g14" /><g
     id="g16" /><g
     id="g18" /><g
     id="g20" /><g
     id="g22" /><g
     id="g24" /><g
     id="g26" /><g
     id="g28" /><g
     id="g30" /><g
     id="g32" /><path
     style="fill:#000000;stroke-width:0.36963058"
     d="m 89.24268,195.07908 c -0.13328,-0.34734 -0.24558,-4.06935 -0.24955,-8.27113 -0.0104,-11.40254 -0.8252,-16.27256 -4.817204,-28.80533 -1.017269,-3.19369 -1.800043,-6.05859 -1.739493,-6.36645 0.151283,-0.76916 3.567967,4.50345 6.014627,9.28174 3.16369,6.17859 4.31076,10.01676 4.52985,15.15714 0.10477,2.45779 -0.007,5.62427 -0.26086,7.39261 -0.5209,3.62833 -2.08385,10.04587 -2.76165,11.3395 -0.40871,0.78005 -0.50647,0.8172 -0.71572,0.27192 z m 19.87085,-3.33791 c -0.40504,-1.61382 0.0937,-11.18056 0.76144,-14.60579 0.98568,-5.05614 3.45678,-11.94658 6.28794,-17.53339 3.06307,-6.04445 6.1924,-11.0258 6.37929,-10.15475 0.0694,0.32374 -1.36403,4.33989 -3.18553,8.92478 -5.54148,13.94835 -7.21815,19.48983 -8.91815,29.47508 -0.43193,2.53705 -0.84995,4.67743 -0.92893,4.7564 -0.079,0.079 -0.2572,-0.30908 -0.39606,-0.86233 z m -6.94835,-15.25265 c 0.95768,-4.02501 6.22347,-15.0059 10.31457,-21.50925 8.09903,-12.87448 18.48591,-25.87339 30.69769,-38.41739 l 6.6108,-6.79063 -0.11552,-2.50059 c -0.0783,-1.69504 0.0315,-2.59149 0.3411,-2.78278 0.25113,-0.15521 2.13646,-0.25603 4.18961,-0.22404 2.05316,0.032 3.96232,-0.0904 4.24257,-0.27217 0.51147,-0.33156 0.0861,-0.41307 -5.23754,-1.00357 -2.02198,-0.22429 -2.18065,-0.31606 -2.86463,-1.65675 -1.37894,-2.702963 -0.73459,-5.289776 1.46153,-5.867336 0.72924,-0.19178 3.78453,-0.464729 6.78953,-0.606552 8.17085,-0.385594 7.37762,-1.026499 -1.01035,-0.816317 -8.3137,0.208321 -8.3933,0.178173 -8.58762,-3.251943 -0.16752,-2.957045 0.79595,-5.694032 2.2472,-6.383786 0.73376,-0.348735 3.11446,-0.558731 7.57743,-0.668373 3.57913,-0.0879 6.92334,-0.266423 7.43158,-0.396637 1.40589,-0.360205 -2.9556,-0.736431 -9.12654,-0.787255 -2.88499,-0.0238 -5.34296,-0.201021 -5.46217,-0.393899 -0.25006,-0.404618 0.38625,-4.815172 0.94617,-6.558326 0.59314,-1.846582 1.94696,-2.121876 10.50068,-2.135322 6.56726,-0.0104 7.77148,0.08513 10.7861,0.855106 2.64011,0.674287 3.73905,1.1625 4.95004,2.199059 0.94174,0.806095 1.40242,1.047753 1.1663,0.61182 -0.5011,-0.925185 -2.23848,-2.535192 -3.35877,-3.112532 -1.41236,-0.727849 -6.81992,-1.481884 -13.42166,-1.871532 -7.58574,-0.447727 -10.74922,-1.276242 -17.49465,-4.581837 -5.16303,-2.530144 -12.85191,-7.473006 -17.92708,-11.524584 -6.0501,-4.829882 -15.15485,-14.677256 -15.15485,-16.390968 0,-0.243771 1.95442,1.365185 4.34316,3.575437 5.61994,5.200044 9.18771,8.023767 14.87763,11.774974 10.25978,6.763997 25.19952,13.354903 29.52328,13.024696 l 1.51501,-0.115706 -2.61131,-2.032968 c -3.41592,-2.659365 -8.90146,-8.327095 -11.65915,-12.046411 -2.29856,-3.100068 -4.35832,-6.400395 -4.13433,-6.624392 0.0722,-0.07219 1.54227,1.702761 3.26685,3.944328 6.80131,8.840085 12.50519,12.975038 25.34015,18.369981 2.42488,1.019257 5.32371,1.969392 6.44184,2.111423 1.11813,0.142019 2.31712,0.40441 2.66443,0.58308 0.3473,0.178682 2.40599,3.857326 4.57486,8.17475 6.02164,11.986908 8.47403,15.477445 12.84068,18.276415 2.94167,1.885567 3.69578,3.200497 4.34715,7.579947 0.71243,4.79 -0.8622,11.49452 -4.26651,18.16622 -2.96061,5.80215 -4.3948,6.98843 -7.54624,6.24182 -0.94065,-0.22285 -4.37161,-1.3323 -7.62436,-2.46545 -3.25274,-1.13313 -6.19336,-2.06063 -6.53471,-2.06109 -0.43214,-7.4e-4 -0.78895,0.5885 -1.17489,1.93973 -1.09254,3.8251 -1.41078,6.48623 -1.65396,13.8306 -0.13576,4.09996 -0.36064,7.56818 -0.49976,7.70715 -0.35302,0.35266 -0.92541,-1.99898 -1.44112,-5.92086 -0.43369,-3.29816 -0.27161,-16.48685 0.22291,-18.13872 0.20458,-0.68333 -0.0603,-0.85055 -2.45221,-1.54831 -2.18875,-0.63849 -2.75395,-0.69321 -3.07541,-0.29772 -12.53742,15.42421 -16.67077,22.35661 -23.86268,40.02222 -1.67264,4.10851 -3.27981,7.76785 -3.5715,8.13187 -0.47086,0.58761 -0.5031,0.43383 -0.28749,-1.37112 1.22504,-10.25533 11.4055,-32.54417 20.95228,-45.8724 1.63783,-2.28659 2.05204,-3.10682 1.68599,-3.33869 -0.26691,-0.16906 -0.57813,-0.26852 -0.6916,-0.221 -0.11343,0.0475 -3.44016,3.66258 -7.39261,8.03346 -12.58664,13.9191 -18.55873,20.04173 -25.83677,26.488 -2.93029,2.5954 -4.45143,3.72125 -4.45143,3.29465 0,-0.30522 3.2003,-4.14623 8.49213,-10.19223 2.75803,-3.1511 8.40684,-9.80445 12.55292,-14.78522 4.14607,-4.98077 8.85316,-10.50849 10.46021,-12.28383 1.60704,-1.77533 2.82281,-3.38822 2.70169,-3.58419 -0.3664,-0.59283 -6.46759,-5.20092 -6.88613,-5.20092 -0.58878,0 -9.90316,9.4616 -15.28291,15.52448 -13.90411,15.66967 -22.96287,28.52379 -32.88709,46.66586 -1.474,2.69456 -1.84974,3.07235 -1.47052,1.47852 z m -3.45876,-10.35528 c -2.28527,-3.19883 -5.33168,-7.22989 -6.7698,-8.95791 -7.392391,-8.88264 -19.938589,-21.49648 -28.326165,-28.47892 -4.279721,-3.56274 -14.424509,-10.40835 -15.196841,-10.25467 -0.296316,0.0589 -0.757165,0.43986 -1.024108,0.84645 -0.450186,0.68571 -0.05441,1.11416 5.463325,5.91409 8.992396,7.82259 14.999158,14.55548 21.024841,23.56642 4.01532,6.00461 9.745622,17.74056 8.193913,16.78154 -0.210782,-0.13026 -2.410569,-3.23986 -4.888445,-6.91021 -8.455057,-12.52408 -15.034978,-20.73841 -20.799101,-25.96549 -6.45688,-5.85529 -14.145519,-10.94323 -15.097792,-9.99096 -0.328347,0.32835 0.544582,2.70584 3.66297,9.97639 5.929001,13.82354 11.260183,27.81009 10.396842,27.27652 -0.545448,-0.3371 -4.253813,-7.8523 -9.253806,-18.75328 -4.12592,-8.99531 -7.773123,-15.86603 -8.933382,-16.82896 -0.40657,-0.33742 -1.98145,0.008 -7.234813,1.58789 -3.693314,1.11057 -8.332836,2.62512 -10.310048,3.36567 -4.435093,1.66115 -5.917069,1.88622 -7.393247,1.12286 -2.8738312,-1.48611 -7.6077712,-11.74674 -8.6230082,-18.69002 -0.3166,-2.16519 -0.31742,-3.57487 -0.0035,-5.5996 0.67133,-4.32682 1.411596,-5.60026 4.350587,-7.484109 4.3239732,-2.771594 6.8297562,-6.340851 12.8246562,-18.267613 2.170124,-4.317424 4.229844,-8.001693 4.577147,-8.187259 1.307961,-0.698822 8.584797,-3.09665 13.636653,-4.493484 15.343377,-4.242412 29.99164,-10.33911 41.700127,-17.355865 2.439562,-1.462004 4.934565,-2.914664 5.544455,-3.228122 l 1.10889,-0.569959 -0.73926,0.840736 c -1.31883,1.499857 -6.545275,5.56063 -10.714454,8.324785 -7.864398,5.214067 -15.12102,8.754042 -24.030815,11.722892 -3.049452,1.016114 -5.614411,1.91166 -5.699923,1.990102 -0.08548,0.07843 0.233953,0.557161 0.70991,1.063797 0.475969,0.506637 0.7499,1.036652 0.608759,1.177793 -0.141153,0.141153 -2.123955,0.372264 -4.406228,0.513579 -4.654249,0.288173 -9.444119,0.928824 -11.296673,1.510946 -1.361164,0.427697 -3.558329,2.204315 -4.193216,3.390598 -0.275987,0.515681 0.09345,0.33306 1.142124,-0.564542 1.153825,-0.987629 2.371989,-1.549791 4.765243,-2.19907 2.897245,-0.786008 4.000939,-0.874107 11.162208,-0.890903 l 7.947057,-0.0186 3.696306,-1.583601 C 71.132772,65.473163 90.99749,51.784057 104.87849,38.34854 c 6.26337,-6.062346 5.08615,-3.788794 -2.18098,4.212125 -9.60017,10.56954 -23.721107,21.329625 -39.756317,30.294136 -3.659343,2.045756 -6.862192,3.84916 -7.117456,4.007558 -0.359708,0.223211 -0.37804,0.81164 -0.08155,2.615818 0.210435,1.280308 0.28472,2.486233 0.165075,2.679827 -0.119657,0.193606 -2.577989,0.371433 -5.462967,0.395193 -6.170948,0.05082 -10.532427,0.427051 -9.126548,0.787256 0.508242,0.130214 3.852463,0.308699 7.431596,0.396636 4.462954,0.109619 6.843652,0.319638 7.577426,0.668385 1.451239,0.689742 2.414716,3.426741 2.247193,6.383785 -0.194322,3.430117 -0.273908,3.460253 -8.587627,3.251943 -8.387958,-0.210181 -9.181185,0.430712 -1.010351,0.816318 3.005004,0.141811 6.060301,0.41476 6.789536,0.606541 2.196114,0.57757 2.840472,3.164372 1.461531,5.867339 -0.683978,1.34069 -0.842654,1.43246 -2.864637,1.65675 -5.32357,0.59049 -5.748991,0.67201 -5.237538,1.00357 0.280261,0.18168 2.189414,0.30416 4.242573,0.27217 2.053148,-0.032 3.924403,0.0602 4.158344,0.20471 0.587239,0.36293 0.536219,4.04591 -0.07612,5.49834 -0.275825,0.65419 -1.356994,1.98618 -2.402598,2.95999 -1.045616,0.9738 -1.901114,1.8235 -1.901114,1.88822 0,0.0647 0.956419,0.74968 2.125376,1.52213 10.473817,6.92116 23.731218,19.00827 31.685593,28.88856 3.81144,4.73425 10.02363,13.96725 12.88954,19.15733 2.14025,3.87593 3.74863,7.58136 3.28663,7.5718 -0.14951,-0.003 -2.14161,-2.62285 -4.42688,-5.82168 z M 59.063214,100.84885 c -49.2731492,78.09041 -24.636575,39.04521 0,0 z M 143.52085,57.687219 c -5.17368,-3.225801 -11.59105,-9.156535 -15.13627,-13.988484 -3.37879,-4.605135 -5.83233,-10.42297 -7.24152,-17.171189 -0.84973,-4.069078 -1.46299,-11.65593 -1.07386,-13.284938 0.15074,-0.631006 0.2911,-1.033545 0.3119,-0.894529 0.0208,0.139027 0.61803,3.069678 1.32716,6.512567 3.08834,14.994295 6.31629,20.666392 19.52734,34.313095 2.78162,2.873335 5.05748,5.326757 5.05748,5.452051 0,0.500514 -1.01565,0.156654 -2.77223,-0.938573 z M 73.112029,46.755233 c 0.0035,-0.156354 1.533239,-1.282272 3.400116,-2.502053 C 86.61622,37.651382 96.1297,27.672928 105.18503,14.178917 c 1.95948,-2.919966 3.62842,-5.1118176 3.70877,-4.8707838 0.45234,1.3570058 -4.57393,11.7442368 -8.58987,17.7517508 -4.32763,6.473779 -9.4488,11.305844 -16.425891,15.498644 -3.914457,2.352341 -10.783002,5.029771 -10.76601,4.196705 z"
     id="path8696"
     inkscape:connector-curvature="0"
     sodipodi:nodetypes="ccscccccccssccccccsccccccccccsscccccccccccsssscsccccccsccccssscccccccccccsccccssccscssscccccccsccscscscccsccssccccccssccsccscsccscsccccsccssccccccccccsccsccccccccccccsccsscscc" /><g
     id="g8850"
     transform="matrix(0.19568645,0,0,0.19568645,70.088069,62.210618)"><g
       id="g8791"><g
         id="g8789"><path
           id="path8783"
           d="m 64.99,131.391 c 1.247,1.103 2.971,1.501 4.627,1.165 1.638,-0.325 3.063,-1.459 3.806,-2.966 0.278,-0.565 3.315,-5.874 13.438,-4.945 13.008,1.182 21.486,7.042 21.57,7.095 0.937,0.661 2.024,0.99 3.107,0.99 1.308,0 2.607,-0.478 3.636,-1.413 l 32.252,-29.564 c 1.767,-1.625 2.247,-4.221 1.176,-6.371 L 135.081,68.348 c 14.063,-23.806 42.312,-25.709 50.853,-25.709 1.122,0 1.784,0.037 2.246,0.053 l 6.719,-0.053 c 2.21,-0.016 4.184,-1.388 4.976,-3.452 0.8,-2.065 0.242,-4.396 -1.39,-5.892 -14.122,-12.926 -31.69,-19.481 -52.237,-19.481 -40.966,0 -83.381,27.113 -91.982,45.397 -10.177,21.626 -22.998,34.644 -23.132,34.778 -1.042,1.049 -1.612,2.488 -1.565,3.968 0.051,1.483 0.707,2.88 1.825,3.864 z"
           inkscape:connector-curvature="0" /><path
           id="path8785"
           d="m 38.17,166.357 c 0.979,0.829 2.215,1.28 3.483,1.28 0.158,0 0.317,-0.005 0.473,-0.021 1.44,-0.125 2.764,-0.823 3.677,-1.938 l 18.814,-22.845 c 1.845,-2.236 1.585,-5.525 -0.586,-7.443 l -34.94,-30.909 c -1.065,-0.948 -2.446,-1.399 -3.892,-1.339 -1.431,0.092 -2.756,0.74 -3.699,1.811 L 1.343,127.801 c -0.956,1.075 -1.436,2.499 -1.329,3.935 0.103,1.441 0.78,2.773 1.877,3.708 z"
           inkscape:connector-curvature="0" /><path
           id="path8787"
           d="m 327.973,264.453 c -0.285,-0.662 -0.693,-1.249 -1.213,-1.753 l -91.865,-88.127 -37.406,-36.505 77.066,-71.24 3.852,3.854 c 1.01,1.01 2.379,1.575 3.802,1.575 0.072,0 0.152,0 0.226,-0.005 1.501,-0.063 2.908,-0.753 3.88,-1.903 l 28.42,-33.643 c 0.934,-1.108 1.385,-2.544 1.244,-3.979 -0.137,-1.446 -0.852,-2.769 -1.974,-3.678 L 303.48,20.561 c -1.963,-1.575 -4.762,-1.591 -6.735,-0.016 l -33.35,26.677 c -1.192,0.959 -1.922,2.378 -2.005,3.904 -0.089,1.527 0.482,3.021 1.564,4.102 l 3.995,3.994 -77.167,71.332 -28.46,-27.775 c -2,-1.952 -5.184,-2.039 -7.283,-0.205 l -36.956,32.253 c -1.103,0.96 -1.765,2.328 -1.84,3.777 -0.074,1.459 0.445,2.881 1.445,3.947 l 27.883,29.8 -3.525,3.261 -13.58,-13.744 c -1.971,-2.005 -5.187,-2.128 -7.32,-0.299 L 2.703,262.5 c -0.617,0.541 -1.113,1.208 -1.433,1.953 -3.926,9.098 1.703,23.469 14.003,35.765 9.352,9.359 20.553,15.177 29.231,15.177 2.981,0 5.633,-0.662 7.879,-1.96 0.405,-0.229 0.78,-0.52 1.108,-0.85 L 161.866,204.296 c 2.089,-2.096 2.1,-5.481 0.021,-7.581 l -13.294,-13.449 3.312,-3.061 123.715,132.26 c 0.363,0.377 0.782,0.713 1.233,0.977 2.247,1.301 4.898,1.953 7.88,1.953 8.673,0 19.874,-5.817 29.233,-15.172 12.301,-12.301 17.933,-26.672 14.007,-35.77 z m -309.161,9.381 c -0.753,0 -1.499,-0.32 -2.031,-0.93 -0.974,-1.123 -0.851,-2.813 0.275,-3.789 l 98.642,-85.451 c 1.117,-0.97 2.818,-0.85 3.79,0.274 0.974,1.122 0.851,2.817 -0.273,3.789 l -98.644,85.449 c -0.511,0.442 -1.133,0.658 -1.759,0.658 z m 14.112,14.111 c -0.698,0 -1.397,-0.273 -1.924,-0.815 -1.031,-1.06 -1.011,-2.766 0.055,-3.8 l 93.064,-90.604 c 1.058,-1.031 2.755,-1.01 3.798,0.052 1.034,1.06 1.01,2.771 -0.052,3.8 L 34.8,287.182 c -0.522,0.511 -1.199,0.763 -1.876,0.763 z m 108.067,-82.668 -92.054,92.625 c -0.527,0.535 -1.215,0.792 -1.903,0.792 -0.688,0 -1.37,-0.263 -1.898,-0.782 -1.047,-1.044 -1.053,-2.75 -0.01,-3.8 l 92.054,-92.626 c 1.05,-1.055 2.753,-1.055 3.801,-0.011 1.046,1.045 1.059,2.746 0.01,3.802 z"
           inkscape:connector-curvature="0" /></g></g><g
       id="g8793" /><g
       id="g8795" /><g
       id="g8797" /><g
       id="g8799" /><g
       id="g8801" /><g
       id="g8803" /><g
       id="g8805" /><g
       id="g8807" /><g
       id="g8809" /><g
       id="g8811" /><g
       id="g8813" /><g
       id="g8815" /><g
       id="g8817" /><g
       id="g8819" /><g
       id="g8821" /></g></svg>